<?xml version="1.0" encoding="UTF-8" standalone="no"?>
<svg
   xmlns:dc="http://purl.org/dc/elements/1.1/"
   xmlns:cc="http://creativecommons.org/ns#"
   xmlns:rdf="http://www.w3.org/1999/02/22-rdf-syntax-ns#"
   xmlns:svg="http://www.w3.org/2000/svg"
   xmlns="http://www.w3.org/2000/svg"
   xmlns:sodipodi="http://sodipodi.sourceforge.net/DTD/sodipodi-0.dtd"
   xmlns:inkscape="http://www.inkscape.org/namespaces/inkscape"
   width="1000"
   height="1000"
   viewBox="0 0 264.58333 264.58334"
   version="1.1"
   id="svg871"
   inkscape:version="1.0.1 (3bc2e813f5, 2020-09-07)"
   sodipodi:docname="logo-simplified-v2.svg">
  <defs
     id="defs865" />
  <sodipodi:namedview
     id="base"
     pagecolor="#ffffff"
     bordercolor="#666666"
     borderopacity="1.0"
     inkscape:pageopacity="0.0"
     inkscape:pageshadow="2"
     inkscape:zoom="0.35"
     inkscape:cx="400"
     inkscape:cy="560"
     inkscape:document-units="px"
     inkscape:current-layer="layer1"
     inkscape:document-rotation="0"
     showgrid="false"
     units="px"
     inkscape:pagecheckerboard="true"
     inkscape:window-width="1267"
     inkscape:window-height="1198"
     inkscape:window-x="130"
     inkscape:window-y="130"
     inkscape:window-maximized="0" />
  <metadata
     id="metadata868">
    <rdf:RDF>
      <cc:Work
         rdf:about="">
        <dc:format>image/svg+xml</dc:format>
        <dc:type
           rdf:resource="http://purl.org/dc/dcmitype/StillImage" />
        <dc:title></dc:title>
      </cc:Work>
    </rdf:RDF>
  </metadata>
  <g
     inkscape:label="Layer 1"
     inkscape:groupmode="layer"
     id="layer1">
    <path
       id="path58"
       style="overflow:hidden;fill:#4472c4;fill-opacity:1;stroke-width:0.385781"
       d="m 134.25719,10.006604 c -59.151511,0 -108.456611,42.130884 -119.560764,98.020286 l 54.576813,21.50881 c 3.158972,-3.28815 7.597724,-5.33762 12.51757,-5.33762 9.587848,0 17.36021,7.77236 17.36021,17.36015 0,9.58785 -7.772362,17.36021 -17.36021,17.36021 -3.496785,0 -6.749386,-1.03779 -9.474215,-2.81652 l -46.587711,31.39 c 20.208205,39.38159 61.220887,66.32887 108.528307,66.32887 38.64771,0 73.08999,-17.98877 95.42444,-46.04517 L 176.19811,188.9627 c -3.16508,3.35241 -7.6471,5.44768 -12.62155,5.44768 -9.5878,0 -17.36016,-7.77237 -17.36016,-17.36021 0,-9.58779 7.77236,-17.36015 17.36016,-17.36015 9.58784,0 17.36021,7.77236 17.36021,17.36015 0,0.8555 -0.065,1.69579 -0.18461,2.51817 l 55.28809,19.44732 c 12.7148,-19.24738 20.12395,-42.30766 20.12395,-67.10192 0,-5.9193 -0.42434,-11.7395 -1.23945,-17.43329 l -87.66894,-8.97019 c -2.8075,5.80825 -8.75478,9.81484 -15.63846,9.81484 -9.58786,0 -17.36016,-7.77237 -17.36016,-17.360228 0,-9.587794 7.7723,-17.360155 17.36016,-17.360155 3.71429,0 7.15299,1.170499 9.97608,3.157098 L 214.67461,40.300286 C 193.21114,21.444878 165.07176,10.006604 134.25719,10.006604 Z m 87.96956,37.51733 -54.30562,44.464334 c 0.3808,1.039177 0.66373,2.125361 0.8409,3.246759 l 84.1494,8.610783 C 247.83475,82.302988 237.04526,62.967092 222.22675,47.523934 Z M 13.077952,118.53945 c -0.479443,4.39246 -0.727871,8.85419 -0.727871,13.37429 0,16.28515 3.20135,31.82023 8.99582,46.02179 l 44.346843,-29.87926 c -0.811304,-2.00771 -1.26209,-4.19952 -1.26209,-6.49804 0,-0.91788 0.07219,-1.81879 0.209412,-2.6982 z" />
  </g>
</svg>
