<?xml version="1.0" encoding="UTF-8" standalone="no"?>
<svg
   xmlns:dc="http://purl.org/dc/elements/1.1/"
   xmlns:cc="http://creativecommons.org/ns#"
   xmlns:rdf="http://www.w3.org/1999/02/22-rdf-syntax-ns#"
   xmlns:svg="http://www.w3.org/2000/svg"
   xmlns="http://www.w3.org/2000/svg"
   xmlns:sodipodi="http://sodipodi.sourceforge.net/DTD/sodipodi-0.dtd"
   xmlns:inkscape="http://www.inkscape.org/namespaces/inkscape"
   width="210mm"
   height="297mm"
   viewBox="0 0 210 297"
   version="1.1"
   id="svg8"
   inkscape:version="1.0.1 (3bc2e813f5, 2020-09-07)"
   sodipodi:docname="logo-simplified.svg">
  <defs
     id="defs2">
    <clipPath
       id="clip0">
      <path
         d="M282 20 961 20 961 701 282 701Z"
         fill-rule="evenodd"
         clip-rule="evenodd"
         id="path51" />
    </clipPath>
  </defs>
  <sodipodi:namedview
     id="base"
     pagecolor="#ffffff"
     bordercolor="#666666"
     borderopacity="1.0"
     inkscape:pageopacity="0.0"
     inkscape:pageshadow="2"
     inkscape:zoom="0.49497475"
     inkscape:cx="243.22545"
     inkscape:cy="770.23387"
     inkscape:document-units="mm"
     inkscape:current-layer="g84"
     inkscape:document-rotation="0"
     showgrid="false"
     inkscape:window-width="1267"
     inkscape:window-height="1407"
     inkscape:window-x="891"
     inkscape:window-y="131"
     inkscape:window-maximized="0" />
  <metadata
     id="metadata5">
    <rdf:RDF>
      <cc:Work
         rdf:about="">
        <dc:format>image/svg+xml</dc:format>
        <dc:type
           rdf:resource="http://purl.org/dc/dcmitype/StillImage" />
        <dc:title></dc:title>
      </cc:Work>
    </rdf:RDF>
  </metadata>
  <g
     inkscape:label="Layer 1"
     inkscape:groupmode="layer"
     id="layer1">
    <g
       style="overflow:hidden"
       id="g109"
       transform="matrix(0.26458333,0,0,0.26458333,24.565317,59.712604)">
      <g
         clip-path="url(#clip0)"
         transform="translate(-282,-20)"
         id="g84">
        <path
           id="path58"
           style="fill:#4472c4;fill-opacity:1"
           d="m 597.73644,47.04072 c -153.32877,0 -281.13451,109.20896 -309.91797,254.08203 l 141.47071,55.7539 c 8.18842,-8.52346 19.69431,-13.83593 32.44726,-13.83593 24.853,0 45,20.147 45,45 0,24.853 -20.147,45 -45,45 -9.06415,0 -17.49543,-2.69019 -24.55859,-7.30078 l -120.76172,81.36718 c 52.38251,102.08254 158.69301,171.9336 281.32031,171.9336 100.18035,0 189.45949,-46.62932 247.35352,-119.35547 L 706.45324,510.91962 c -8.2044,8.6899 -19.82241,14.1211 -32.7168,14.1211 -24.853,0 -45,-20.147 -45,-45 0,-24.853 20.147,-45 45,-45 24.853,0 45,20.147 45,45 0,2.2175 -0.1687,4.39574 -0.47851,6.52734 l 143.31445,50.41016 c 32.95856,-49.89191 52.16406,-109.66725 52.16406,-173.9375 0,-15.34364 -1.09944,-30.43034 -3.21289,-45.18946 l -227.25,-23.25195 c -7.2774,15.05577 -22.69363,25.44141 -40.53711,25.44141 -24.853,0 -45,-20.147 -45,-45 0,-24.853 20.147,-45 45,-45 9.62798,0 18.54165,3.03414 25.85938,8.18359 L 806.18957,125.56611 C 750.55338,76.6902 677.61211,47.04072 597.73644,47.04072 Z m 228.0293,97.25 -140.76758,115.25781 c 0.98772,2.69366 1.72048,5.5091 2.17969,8.41602 L 905.3048,290.28486 C 892.14528,234.44287 864.17747,184.32157 825.76574,144.29072 Z M 283.62316,328.37275 c -1.24252,11.38594 -1.88672,22.95134 -1.88672,34.66797 0,42.21339 8.29824,82.48256 23.31836,119.29492 l 114.95313,-77.45117 c -2.10294,-5.20432 -3.27149,-10.8858 -3.27149,-16.84375 0,-2.3793 0.18722,-4.71466 0.54297,-6.99414 z" />
      </g>
    </g>
  </g>
</svg>
