<svg width="679" height="681" xmlns="http://www.w3.org/2000/svg" xmlns:xlink="http://www.w3.org/1999/xlink" overflow="hidden"><defs><clipPath id="clip0"><path d="M282 20 961 20 961 701 282 701Z" fill-rule="evenodd" clip-rule="evenodd"/></clipPath></defs><g clip-path="url(#clip0)" transform="translate(-282 -20)"><rect x="283" y="20" width="677" height="680" fill="#FFFFFF"/><path d="M308 359C308 184.478 449.478 43 624 43 798.522 43 940 184.478 940 359 940 533.522 798.522 675 624 675 449.478 675 308 533.522 308 359Z" fill="#4472C4" fill-rule="evenodd"/><path d="M590.066 286.584 690.076 247.375 699.891 272.411 599.881 311.62Z" fill="#4472C4" fill-rule="evenodd"/><path d="M606.862 401.444 702.447 464.767 687.596 487.185 592.011 423.862Z" fill="#4472C4" fill-rule="evenodd"/><path d="M624 271C624 246.147 644.147 226 669 226 693.853 226 714 246.147 714 271 714 295.853 693.853 316 669 316 644.147 316 624 295.853 624 271Z" fill="#FFFFFF" fill-rule="evenodd"/><path d="M655 476C655 451.147 675.147 431 700 431 724.853 431 745 451.147 745 476 745 500.853 724.853 521 700 521 675.147 521 655 500.853 655 476Z" fill="#FFFFFF" fill-rule="evenodd"/><path d="M312.754 296.558 499.373 370.105 489.513 395.123 302.894 321.576Z" fill="#FFFFFF" fill-rule="evenodd"/><path d="M663.716 258.837 947.914 287.916 945.177 314.668 660.979 285.589Z" fill="#FFFFFF" fill-rule="evenodd"/><path d="M472.075 312.32 584.612 386.874 569.76 409.292 457.223 334.738Z" fill="#4472C4" fill-rule="evenodd"/><path d="M319.341 486.365 492.123 369.951 507.149 392.253 334.367 508.666Z" fill="#FFFFFF" fill-rule="evenodd"/><path d="M461.424 381.732 558.89 343.519 568.706 368.555 471.239 406.768Z" fill="#4472C4" fill-rule="evenodd"/><path d="M695.14 465.156 898.972 536.853 890.049 562.221 686.217 490.524Z" fill="#FFFFFF" fill-rule="evenodd"/><path d="M655.51 266.402 843.248 112.687 860.284 133.493 672.546 287.209Z" fill="#FFFFFF" fill-rule="evenodd"/><path d="M443 384C443 359.147 463.147 339 488 339 512.853 339 533 359.147 533 384 533 408.853 512.853 429 488 429 463.147 429 443 408.853 443 384Z" fill="#FFFFFF" fill-rule="evenodd"/></g></svg>